<?xml version="1.0" standalone="no"?>
<!DOCTYPE svg PUBLIC "-//W3C//DTD SVG 20010904//EN"
 "http://www.w3.org/TR/2001/REC-SVG-20010904/DTD/svg10.dtd">
<svg version="1.0" xmlns="http://www.w3.org/2000/svg"
 width="195.000000pt" height="320.000000pt" viewBox="0 0 195.000000 320.000000"
 preserveAspectRatio="xMidYMid meet">

<g transform="translate(0.000000,320.000000) scale(0.100000,-0.100000)"
fill="#000000" stroke="none">
<path d="M787 2334 c-349 -54 -590 -220 -677 -467 -31 -85 -38 -265 -16 -360
49 -208 191 -341 457 -425 92 -30 237 -60 484 -102 238 -39 368 -85 434 -151
46 -45 61 -86 61 -162 0 -190 -156 -290 -476 -304 -297 -13 -613 66 -844 212
l-36 23 -84 -164 -85 -164 25 -20 c49 -37 197 -109 299 -144 416 -145 933
-135 1254 24 247 122 386 353 363 605 -30 332 -242 493 -771 585 -373 65 -503
102 -589 168 -68 51 -96 107 -96 191 1 146 89 236 287 293 68 20 101 23 258
23 137 -1 200 -5 265 -19 115 -25 240 -70 326 -117 l72 -38 86 160 c48 88 84
163 81 168 -11 18 -174 90 -270 120 -196 59 -353 81 -570 80 -82 -1 -190 -7
-238 -15z"/>
</g>
</svg>
