<?xml version="1.0" standalone="no"?>
<!DOCTYPE svg PUBLIC "-//W3C//DTD SVG 20010904//EN"
 "http://www.w3.org/TR/2001/REC-SVG-20010904/DTD/svg10.dtd">
<svg version="1.0" xmlns="http://www.w3.org/2000/svg"
 width="200.000000pt" height="200.000000pt" viewBox="0 0 200.000000 200.000000"
 preserveAspectRatio="xMidYMid meet">

<g transform="translate(0.000000,200.000000) scale(0.100000,-0.100000)"
fill="#000000" stroke="none">
<path d="M937 1560 c-110 -19 -223 -106 -270 -208 -17 -38 -22 -66 -22 -142 0
-82 4 -103 26 -151 15 -31 47 -78 72 -104 39 -41 50 -46 73 -41 20 5 33 1 51
-16 l25 -23 -84 -5 c-75 -5 -83 -7 -83 -25 0 -20 7 -20 275 -20 268 0 275 0
275 20 0 18 -8 20 -83 25 l-84 5 25 23 c18 17 31 21 51 16 23 -5 34 0 73 41
25 26 57 73 72 104 22 48 26 69 26 151 0 84 -3 102 -28 152 -69 141 -233 224
-390 198z m195 -72 c192 -88 241 -329 99 -491 -27 -30 -36 -35 -51 -27 -15 8
-28 2 -67 -28 -26 -21 -54 -46 -62 -55 -28 -34 -76 -21 -147 38 -53 46 -68 54
-84 45 -15 -8 -25 -2 -59 36 -151 171 -62 446 164 505 53 14 149 3 207 -23z"/>
<path d="M878 1384 l-108 -95 0 -69 c0 -104 2 -104 144 19 l86 73 100 -87
c118 -102 130 -102 130 1 l0 63 -110 96 c-61 52 -116 95 -123 95 -7 -1 -60
-44 -119 -96z m216 -42 c55 -46 86 -80 86 -92 0 -11 -3 -20 -6 -20 -3 0 -42
32 -86 70 -45 39 -85 70 -89 70 -5 0 -45 -31 -88 -70 -44 -38 -82 -70 -85 -70
-3 0 -6 9 -6 20 0 20 165 173 181 168 4 -2 46 -36 93 -76z"/>
<path d="M860 1133 c-61 -52 -82 -91 -55 -100 6 -1 36 20 68 47 32 28 62 50
65 50 4 0 32 -22 62 -49 51 -45 54 -50 45 -76 -13 -36 -46 -48 -75 -28 -19 13
-21 22 -16 55 5 30 3 40 -10 45 -23 9 -44 -23 -44 -65 0 -48 46 -92 95 -92 47
0 71 14 91 52 28 53 13 89 -67 157 -39 34 -76 61 -82 61 -7 0 -41 -26 -77 -57z"/>
<path d="M1040 1171 c0 -21 138 -143 155 -138 5 2 11 12 12 23 1 13 -21 38
-66 77 -72 59 -101 70 -101 38z"/>
<path d="M582 718 c-7 -7 -12 -22 -12 -34 0 -42 11 -54 46 -54 46 0 43 -18 -3
-22 -27 -2 -39 -8 -41 -21 -3 -16 3 -18 60 -15 l63 3 3 33 c4 42 -12 62 -50
62 -17 0 -27 4 -23 10 3 6 19 10 36 10 22 0 29 5 29 20 0 17 -7 20 -48 20 -26
0 -53 -5 -60 -12z"/>
<path d="M737 723 c-14 -14 -6 -32 16 -35 19 -3 22 -10 25 -60 3 -54 5 -58 27
-58 24 0 25 3 25 60 0 53 2 60 20 60 13 0 20 7 20 20 0 18 -7 20 -63 20 -35 0
-67 -3 -70 -7z"/>
<path d="M926 660 c-32 -87 -32 -90 -1 -90 14 0 25 5 25 10 0 16 60 12 76 -5
19 -19 44 -20 44 -2 0 8 -13 45 -28 83 -26 62 -31 69 -59 72 -29 3 -31 0 -57
-68z m74 -22 c0 -5 -7 -8 -15 -8 -17 0 -18 2 -9 25 5 13 8 14 15 3 5 -7 9 -16
9 -20z"/>
<path d="M1117 724 c-4 -4 -7 -40 -7 -81 0 -71 1 -73 25 -73 18 0 25 5 25 20
0 25 16 26 29 1 11 -19 58 -34 66 -21 2 4 -2 16 -9 26 -10 13 -11 23 -5 31 6
6 9 31 7 55 l-3 43 -60 3 c-34 2 -64 0 -68 -4z m83 -54 c0 -11 -6 -20 -14 -20
-18 0 -29 16 -21 30 11 18 35 11 35 -10z"/>
<path d="M1290 711 c0 -13 8 -21 23 -23 19 -3 22 -10 25 -59 2 -46 7 -58 22
-62 27 -7 30 -1 30 65 0 51 2 58 20 58 13 0 20 7 20 20 0 18 -7 20 -70 20 -62
0 -70 -2 -70 -19z"/>
<path d="M717 523 c-4 -3 -7 -17 -7 -30 0 -17 6 -23 23 -24 l22 0 -22 -9 c-33
-13 -28 -20 12 -20 30 0 35 3 35 24 0 18 -7 26 -22 29 l-23 4 23 2 c34 2 28
31 -6 31 -16 0 -32 -3 -35 -7z"/>
<path d="M825 520 c-3 -6 1 -13 9 -16 10 -4 16 -18 16 -35 0 -19 5 -29 15 -29
10 0 15 10 15 30 0 17 5 30 10 30 6 0 10 7 10 15 0 17 -65 22 -75 5z"/>
<path d="M957 524 c-4 -4 -7 -25 -7 -46 0 -38 0 -38 41 -38 l40 0 -3 43 c-3
39 -5 42 -33 45 -17 2 -34 0 -38 -4z m43 -44 c0 -11 -4 -20 -10 -20 -5 0 -10
9 -10 20 0 11 5 20 10 20 6 0 10 -9 10 -20z"/>
<path d="M1097 524 c-4 -4 -7 -25 -7 -46 0 -37 1 -38 36 -38 21 0 33 4 29 10
-3 6 -15 10 -26 10 -28 0 -25 38 4 42 12 2 21 8 20 13 -3 12 -46 19 -56 9z"/>
<path d="M1207 523 c-4 -3 -7 -24 -7 -45 0 -27 4 -38 15 -38 8 0 15 5 15 10 0
6 8 5 20 -2 24 -15 37 -4 20 17 -11 13 -10 19 4 34 13 14 14 21 5 26 -7 5 -19
-2 -30 -16 l-19 -24 0 23 c0 22 -10 28 -23 15z"/>
</g>
</svg>
